# xmcd
#
# Track frame offsets:
#	150
#	14730
#	15785
#	28217
#	30465
#	45685
#
# Disc length: 922 seconds
#
# Revision: 1
# Processed by: cddbd v1.5.1PL0 Copyright (c) Steve Scherf et al.
# Submitted via: CDex 1.50Beta5
#
DISCID=3e039806
DTITLE=K-A-Z - BLAZIN〜小橋健太のテーマ
DYEAR=2003
DGENRE=Rock
TTITLE0=K-A-Z/BLAZIN
TTITLE1=仲田龍/小橋健太コール
TTITLE2=K-A-Z/BLAZIN(Victoryヴァージョン)
TTITLE3=小橋健太/メッセージ
TTITLE4=ジェイ・グレイドン/BLAZIN(Jay Graydonオリジナル・ヴァージョン)
TTITLE5=ジェイ・グレイドン/BLAZIN(Jay Graydonオリジナル・ロング・ヴァージョン)
EXTD=
EXTT0=
EXTT1=
EXTT2=
EXTT3=
EXTT4=
EXTT5=
PLAYORDER=
